<?xml version="1.0" standalone="no"?>
<!DOCTYPE svg PUBLIC "-//W3C//DTD SVG 20010904//EN"
 "http://www.w3.org/TR/2001/REC-SVG-20010904/DTD/svg10.dtd">
<svg version="1.0" xmlns="http://www.w3.org/2000/svg"
 width="1080.000000pt" height="1080.000000pt" viewBox="0 0 1080.000000 1080.000000"
 preserveAspectRatio="xMidYMid meet">

<g transform="translate(0.000000,1080.000000) scale(0.100000,-0.100000)"
fill="#000000" stroke="none">
<path d="M0 5400 l0 -5400 5400 0 5400 0 0 5400 0 5400 -5400 0 -5400 0 0
-5400z m2730 3247 l785 -873 5 648 c3 433 8 650 16 658 7 7 579 9 1870 8
l1859 -3 5 -654 5 -654 800 871 c440 479 803 871 808 871 4 1 7 -1622 7 -3605
0 -3111 -2 -3607 -14 -3620 -12 -12 -168 -14 -1065 -14 -578 0 -1052 1 -1053
3 -2 1 -5 882 -8 1959 l-5 1956 -665 -728 c-366 -401 -668 -729 -672 -729 -9
-1 42 -57 -706 761 l-647 708 -5 -1803 -5 -1802 -260 0 -260 0 -5 2098 -5
2097 -535 586 -535 585 -5 -2683 -5 -2683 -262 -3 -263 -2 0 3454 c0 2754 3
3455 13 3459 6 3 14 6 17 6 3 0 358 -393 790 -872z m887 -6188 l36 -80 32 78
c29 73 33 78 63 81 18 2 32 -1 32 -7 0 -6 -7 -11 -15 -11 -12 0 -15 -18 -15
-105 0 -87 3 -105 15 -105 8 0 15 -4 15 -10 0 -5 -22 -10 -50 -10 -27 0 -50 5
-50 10 0 6 11 10 25 10 l25 0 -1 103 0 102 -31 -77 c-17 -44 -37 -78 -45 -78
-7 0 -24 26 -38 58 -14 31 -29 66 -34 77 -7 14 -10 -12 -10 -82 l-1 -103 25 0
c14 0 25 -4 25 -10 0 -5 -22 -10 -50 -10 -27 0 -50 5 -50 10 0 6 7 10 15 10
12 0 15 18 15 105 0 87 -3 105 -15 105 -8 0 -15 5 -15 10 0 6 14 10 30 10 29
0 33 -5 67 -81z m399 -34 c27 -72 47 -111 58 -113 36 -7 13 -22 -34 -22 -27 0
-50 5 -50 10 0 6 11 10 24 10 23 0 24 2 15 30 -10 29 -13 30 -69 30 -56 0 -59
-1 -69 -30 -9 -28 -8 -30 15 -30 13 0 24 -4 24 -10 0 -5 -22 -10 -50 -10 -47
0 -70 15 -33 22 10 2 29 38 54 103 l37 100 -34 3 c-56 5 -39 23 18 20 l52 -3
42 -110z m302 99 c20 -14 22 -14 22 0 0 9 5 16 10 16 6 0 10 -16 10 -35 0 -19
-2 -35 -5 -35 -2 0 -15 11 -29 25 -40 40 -112 28 -135 -22 -21 -46 -14 -102
18 -134 35 -35 72 -37 119 -9 37 23 42 24 42 10 0 -16 -62 -50 -92 -50 -74 0
-123 60 -115 143 3 41 10 56 36 79 36 32 84 37 119 12z m352 -29 c0 -25 -4
-45 -10 -45 -5 0 -10 16 -10 35 0 33 -2 35 -35 35 l-35 0 0 -105 0 -105 30 0
c17 0 30 -4 30 -10 0 -6 -30 -10 -70 -10 -40 0 -70 4 -70 10 0 6 14 10 30 10
l30 0 0 105 0 105 -35 0 c-33 0 -35 -2 -35 -35 0 -19 -4 -35 -10 -35 -5 0 -10
20 -10 45 l0 45 100 0 100 0 0 -45z m320 5 c0 -22 -4 -40 -10 -40 -5 0 -10 14
-10 30 l0 30 -60 0 -60 0 0 -45 c0 -43 1 -45 30 -45 20 0 30 5 30 15 0 8 5 15
10 15 6 0 10 -18 10 -40 0 -22 -4 -40 -10 -40 -5 0 -10 7 -10 15 0 10 -10 15
-30 15 -29 0 -30 -1 -30 -50 l0 -50 65 0 65 0 0 35 c0 19 5 35 10 35 6 0 10
-20 10 -45 l0 -45 -100 0 c-60 0 -100 4 -100 10 0 6 7 10 15 10 12 0 15 18 15
105 0 87 -3 105 -15 105 -8 0 -15 5 -15 10 0 6 38 10 95 10 l95 0 0 -40z m295
15 c53 -52 13 -125 -70 -125 l-45 0 0 -40 c0 -39 1 -40 35 -40 19 0 35 -4 35
-10 0 -6 -27 -10 -60 -10 -33 0 -60 4 -60 10 0 6 7 10 15 10 12 0 15 18 15
105 0 87 -3 105 -15 105 -8 0 -15 5 -15 10 0 6 30 10 70 10 62 0 74 -3 95 -25z
m283 9 c20 -14 22 -14 22 0 0 9 5 16 10 16 6 0 10 -16 10 -35 0 -19 -2 -35 -5
-35 -2 0 -15 11 -29 25 -40 40 -112 28 -135 -22 -21 -46 -14 -102 18 -134 35
-35 72 -37 119 -9 37 23 42 24 42 10 0 -16 -62 -50 -92 -50 -74 0 -123 60
-115 143 3 41 10 56 36 79 36 32 84 37 119 12z m242 6 c0 -5 -7 -10 -15 -10
-11 0 -15 -12 -15 -45 0 -38 3 -45 20 -45 22 0 40 17 73 70 29 46 77 55 77 16
0 -14 -4 -26 -10 -26 -5 0 -10 7 -10 15 0 30 -28 14 -58 -34 -29 -47 -29 -50
-13 -66 10 -8 26 -33 36 -55 14 -30 24 -40 42 -40 12 0 23 -5 23 -11 0 -6 -12
-9 -27 -7 -20 2 -34 15 -56 53 -33 56 -42 65 -74 65 -21 0 -23 -5 -23 -50 0
-38 4 -50 15 -50 8 0 15 -4 15 -10 0 -5 -18 -10 -40 -10 -22 0 -40 5 -40 10 0
6 7 10 15 10 12 0 15 18 15 105 0 87 -3 105 -15 105 -8 0 -15 5 -15 10 0 6 18
10 40 10 22 0 40 -4 40 -10z m386 -105 c27 -72 47 -111 58 -113 36 -7 13 -22
-34 -22 -27 0 -50 5 -50 10 0 6 11 10 24 10 23 0 24 2 15 30 -10 29 -13 30
-69 30 -56 0 -59 -1 -69 -30 -9 -28 -8 -30 15 -30 13 0 24 -4 24 -10 0 -5 -22
-10 -50 -10 -47 0 -70 15 -33 22 10 2 29 38 54 103 l37 100 -34 3 c-56 5 -39
23 18 20 l52 -3 42 -110z m364 105 c0 -5 -7 -10 -15 -10 -12 0 -15 -18 -15
-105 0 -87 3 -105 15 -105 8 0 15 -4 15 -10 0 -5 -22 -10 -50 -10 -27 0 -50 5
-50 10 0 6 11 10 25 10 23 0 25 4 25 45 0 44 -1 45 -33 45 -34 0 -66 -25 -102
-82 -9 -16 -24 -28 -31 -28 -15 0 -19 16 -5 22 15 5 82 98 71 98 -18 0 -50 39
-50 60 0 12 11 32 25 45 21 22 33 25 100 25 43 0 75 -4 75 -10z m-3172 -426
c187 -78 187 -390 0 -468 -93 -39 -196 5 -251 109 -17 32 -22 57 -22 125 0 68
5 93 22 125 55 104 158 148 251 109z m630 -12 c41 -21 42 -21 42 -2 0 11 7 20
15 20 12 0 15 -14 15 -70 0 -56 -3 -70 -15 -70 -8 0 -15 8 -15 18 0 29 -30 63
-74 83 -133 60 -256 -36 -256 -201 0 -103 40 -170 122 -205 73 -30 154 -12
202 46 26 31 46 38 46 16 0 -20 -60 -74 -102 -91 -102 -43 -225 9 -277 118
-24 48 -28 154 -10 217 16 52 64 108 113 131 53 24 137 20 194 -10z m2910 0
c41 -21 42 -21 42 -2 0 11 7 20 15 20 12 0 15 -14 15 -70 0 -56 -3 -70 -15
-70 -8 0 -15 8 -15 18 0 29 -30 63 -74 83 -133 60 -256 -36 -256 -201 0 -103
40 -170 122 -205 73 -30 154 -12 202 46 26 31 46 38 46 16 0 -20 -60 -74 -102
-91 -102 -43 -225 9 -277 118 -24 48 -28 154 -10 217 16 52 64 108 113 131 53
24 137 20 194 -10z m-4568 3 c0 -10 -10 -15 -30 -15 l-30 0 0 -210 0 -210 30
0 c20 0 30 -5 30 -15 0 -12 -15 -15 -75 -15 -60 0 -75 3 -75 15 0 10 10 15 30
15 l30 0 0 210 0 210 -110 0 -110 0 0 -210 0 -210 30 0 c20 0 30 -5 30 -15 0
-12 -15 -15 -75 -15 -60 0 -75 3 -75 15 0 10 10 15 30 15 l30 0 0 210 0 210
-30 0 c-20 0 -30 5 -30 15 0 13 29 15 200 15 171 0 200 -2 200 -15z m500 -3
c43 -21 80 -75 80 -116 0 -49 -32 -98 -80 -123 -34 -18 -59 -23 -122 -23 l-78
0 0 -85 0 -85 70 0 c56 0 70 -3 70 -15 0 -12 -19 -15 -115 -15 -96 0 -115 3
-115 15 0 10 10 15 30 15 l30 0 0 210 0 210 -30 0 c-20 0 -30 5 -30 15 0 24
242 22 290 -3z m1800 -67 c0 -69 -3 -85 -15 -85 -12 0 -15 14 -15 70 l0 70
-70 0 -70 0 0 -210 0 -210 50 0 c38 0 50 -4 50 -15 0 -12 -19 -15 -115 -15
-96 0 -115 3 -115 15 0 11 12 15 50 15 l50 0 0 210 0 210 -70 0 -70 0 0 -70
c0 -56 -3 -70 -15 -70 -12 0 -15 16 -15 85 l0 85 185 0 185 0 0 -85z m530 67
c43 -21 80 -75 80 -116 0 -49 -32 -98 -80 -123 -34 -18 -59 -23 -122 -23 l-78
0 0 -85 0 -85 70 0 c56 0 70 -3 70 -15 0 -12 -19 -15 -115 -15 -96 0 -115 3
-115 15 0 10 10 15 30 15 l30 0 0 210 0 210 -30 0 c-20 0 -30 5 -30 15 0 24
242 22 290 -3z m556 -137 c113 -316 104 -295 130 -295 15 0 24 -6 24 -15 0
-12 -16 -15 -85 -15 -69 0 -85 3 -85 15 0 11 12 15 44 15 l44 0 -21 65 -21 65
-126 0 -125 0 -19 -52 c-10 -29 -21 -59 -23 -65 -4 -9 7 -13 36 -13 30 0 41
-4 41 -15 0 -12 -16 -15 -80 -15 -64 0 -80 3 -80 15 0 9 9 15 23 15 22 0 30
18 99 208 l75 207 -58 3 c-44 2 -59 7 -59 18 0 12 18 14 106 12 l106 -3 54
-150z m434 140 c0 -10 -10 -15 -30 -15 l-30 0 0 -95 0 -95 110 0 110 0 0 95 0
95 -30 0 c-20 0 -30 5 -30 15 0 12 14 15 65 15 51 0 65 -3 65 -15 0 -8 -9 -15
-20 -15 -19 0 -20 -7 -20 -210 l0 -210 30 0 c20 0 30 -5 30 -15 0 -12 -15 -15
-75 -15 -60 0 -75 3 -75 15 0 10 10 15 30 15 l30 0 0 100 0 100 -110 0 -110 0
0 -100 0 -100 30 0 c20 0 30 -5 30 -15 0 -12 -15 -15 -75 -15 -60 0 -75 3 -75
15 0 10 10 15 30 15 l30 0 0 210 c0 203 -1 210 -20 210 -11 0 -20 7 -20 15 0
12 14 15 65 15 51 0 65 -3 65 -15z m1390 -70 c0 -69 -3 -85 -15 -85 -12 0 -15
14 -15 70 l0 70 -70 0 -70 0 0 -210 0 -210 50 0 c38 0 50 -4 50 -15 0 -12 -19
-15 -115 -15 -96 0 -115 3 -115 15 0 11 12 15 50 15 l50 0 0 210 0 210 -70 0
-70 0 0 -70 c0 -56 -3 -70 -15 -70 -12 0 -15 16 -15 85 l0 85 185 0 185 0 0
-85z m495 71 c41 -17 75 -68 75 -112 0 -17 -11 -48 -25 -68 l-25 -36 36 -33
c67 -61 53 -162 -29 -200 -49 -24 -327 -25 -327 -2 0 10 10 15 30 15 l30 0 0
210 0 210 -30 0 c-20 0 -30 5 -30 15 0 21 245 22 295 1z m581 -141 c113 -316
104 -295 130 -295 15 0 24 -6 24 -15 0 -12 -16 -15 -85 -15 -69 0 -85 3 -85
15 0 11 12 15 44 15 l44 0 -21 65 -21 65 -126 0 -125 0 -19 -52 c-10 -29 -21
-59 -23 -65 -4 -9 7 -13 36 -13 30 0 41 -4 41 -15 0 -12 -16 -15 -80 -15 -64
0 -80 3 -80 15 0 9 9 15 23 15 22 0 30 18 99 208 l75 207 -58 3 c-44 2 -59 7
-59 18 0 12 18 14 106 12 l106 -3 54 -150z"/>
<path d="M4050 7820 l0 -640 662 -735 662 -734 52 57 c28 31 338 368 688 747
l635 690 1 628 0 627 -1350 0 -1350 0 0 -640z"/>
<path d="M7813 7367 l-542 -592 -1 -1937 0 -1938 545 0 545 0 0 2530 c0 1392
-1 2530 -2 2530 -2 0 -247 -267 -545 -593z"/>
<path d="M3933 2450 l-22 -60 49 0 49 0 -22 60 c-12 33 -24 60 -27 60 -3 0
-15 -27 -27 -60z"/>
<path d="M5170 2465 l0 -55 38 0 c46 0 82 24 82 54 0 34 -30 56 -78 56 l-42 0
0 -55z"/>
<path d="M6113 2450 l-22 -60 49 0 49 0 -22 60 c-12 33 -24 60 -27 60 -3 0
-15 -27 -27 -60z"/>
<path d="M6402 2504 c-49 -34 -6 -84 71 -84 l37 0 0 50 0 50 -43 0 c-23 0 -53
-7 -65 -16z"/>
<path d="M3252 2074 c-43 -22 -89 -90 -104 -153 -31 -137 70 -282 187 -269 58
7 95 35 130 100 24 43 30 65 30 118 0 53 -6 75 -30 118 -16 30 -42 63 -58 74
-39 28 -112 34 -155 12z"/>
<path d="M2660 1970 l0 -110 70 0 c119 0 180 40 180 117 0 68 -59 103 -175
103 l-75 0 0 -110z"/>
<path d="M4990 1970 l0 -110 70 0 c119 0 180 40 180 117 0 68 -59 103 -175
103 l-75 0 0 -110z"/>
<path d="M5625 2068 c-24 -65 -85 -240 -85 -243 0 -3 50 -5 111 -5 109 0 110
0 103 22 -3 12 -23 69 -44 127 -30 85 -42 107 -59 109 -12 2 -23 -3 -26 -10z"/>
<path d="M7860 1984 l0 -96 96 4 c94 3 96 4 125 36 31 35 35 57 18 95 -19 42
-59 57 -153 57 l-86 0 0 -96z"/>
<path d="M7860 1760 l0 -100 101 0 c76 0 108 4 129 17 49 28 64 88 34 132 -26
37 -74 51 -174 51 l-90 0 0 -100z"/>
<path d="M8525 2068 c-24 -65 -85 -240 -85 -243 0 -3 50 -5 111 -5 109 0 110
0 103 22 -3 12 -23 69 -44 127 -30 85 -42 107 -59 109 -12 2 -23 -3 -26 -10z"/>
</g>
</svg>
